<svg width="425" height="550" viewBox="0 0 425 550" fill="none" xmlns="http://www.w3.org/2000/svg">
<path d="M212.5 543C329.861 543 425 448.308 425 331.5C425 214.692 329.861 120 212.5 120C95.1395 120 0 214.692 0 331.5C0 448.308 95.1395 543 212.5 543Z" fill="#F1C528"/>
<g filter="url(#filter0_i)">
<path d="M253.928 523.6C286.568 523.6 310.184 514.672 324.776 496.816L330.536 489.04L338.888 495.952C331.4 505.744 326.12 511.984 323.048 514.672C320.168 517.168 317 519.664 313.544 522.16C310.28 524.656 307.016 526.672 303.752 528.208C300.68 529.744 298.472 530.896 297.128 531.664L292.808 533.392C278.984 538.576 264.488 541.168 249.32 541.168C234.152 541.168 220.52 538.384 208.424 532.816C196.52 527.248 186.248 519.376 177.608 509.2C168.968 499.024 161.96 486.448 156.584 471.472C151.208 456.496 148.52 442 148.52 427.984C148.52 392.656 163.496 363.568 193.448 340.72C209.96 328.432 227.624 322.288 246.44 322.288C265.256 322.288 280.616 324.592 292.52 329.2C293.48 329.584 294.152 329.776 294.536 329.776C295.112 329.776 295.4 329.392 295.4 328.624C295.4 327.856 294.824 326.608 293.672 324.88H308.072L336.008 367.504L327.944 374.128L321.896 366.352L310.376 355.408C301.736 347.152 292.904 342.16 283.88 340.432C275.048 338.704 266.792 337.84 259.112 337.84C251.432 337.84 244.04 339.088 236.936 341.584C229.832 343.888 222.728 347.632 215.624 352.816C208.712 358 202.376 364.048 196.616 370.96C190.856 377.872 186.248 386.032 182.792 395.44C179.336 404.848 177.608 414.544 177.608 424.528C177.608 451.984 185 475.408 199.784 494.8C214.76 514 232.808 523.6 253.928 523.6Z" fill="#EA371E"/>
<path d="M324.776 496.816L325.163 497.132L325.171 497.123L325.178 497.114L324.776 496.816ZM330.536 489.04L330.855 488.655L330.448 488.318L330.134 488.742L330.536 489.04ZM338.888 495.952L339.285 496.256L339.577 495.874L339.207 495.567L338.888 495.952ZM323.048 514.672L323.375 515.05L323.377 515.048L323.048 514.672ZM313.544 522.16L313.251 521.755L313.24 521.763L313.544 522.16ZM303.752 528.208L303.539 527.755L303.528 527.761L303.752 528.208ZM297.128 531.664L297.314 532.128L297.346 532.115L297.376 532.098L297.128 531.664ZM292.808 533.392L292.984 533.86L292.994 533.856L292.808 533.392ZM208.424 532.816L208.212 533.269L208.215 533.27L208.424 532.816ZM177.608 509.2L177.227 509.524L177.608 509.2ZM156.584 471.472L156.113 471.641L156.584 471.472ZM193.448 340.72L193.149 340.319L193.145 340.322L193.448 340.72ZM292.52 329.2L292.706 328.736L292.701 328.734L292.52 329.2ZM293.672 324.88V324.38H292.738L293.256 325.157L293.672 324.88ZM308.072 324.88L308.49 324.606L308.342 324.38H308.072V324.88ZM336.008 367.504L336.325 367.89L336.672 367.605L336.426 367.23L336.008 367.504ZM327.944 374.128L327.549 374.435L327.865 374.84L328.261 374.514L327.944 374.128ZM321.896 366.352L322.291 366.045L322.268 366.015L322.24 365.989L321.896 366.352ZM310.376 355.408L310.031 355.769L310.032 355.77L310.376 355.408ZM283.88 340.432L283.784 340.923H283.786L283.88 340.432ZM236.936 341.584L237.09 342.06L237.102 342.056L236.936 341.584ZM215.624 352.816L215.329 352.412L215.324 352.416L215.624 352.816ZM196.616 370.96L197 371.28L196.616 370.96ZM182.792 395.44L183.261 395.612L182.792 395.44ZM199.784 494.8L199.386 495.103L199.39 495.108L199.784 494.8ZM253.928 524.1C286.653 524.1 310.442 515.147 325.163 497.132L324.389 496.5C309.927 514.197 286.483 523.1 253.928 523.1V524.1ZM325.178 497.114L330.938 489.338L330.134 488.742L324.374 496.518L325.178 497.114ZM330.217 489.425L338.569 496.337L339.207 495.567L330.855 488.655L330.217 489.425ZM338.491 495.648C330.997 505.447 325.747 511.646 322.719 514.296L323.377 515.048C326.493 512.322 331.803 506.041 339.285 496.256L338.491 495.648ZM322.721 514.294C319.853 516.779 316.697 519.266 313.251 521.755L313.837 522.565C317.303 520.062 320.483 517.557 323.375 515.05L322.721 514.294ZM313.24 521.763C310.001 524.24 306.767 526.237 303.539 527.756L303.965 528.66C307.265 527.107 310.559 525.072 313.848 522.557L313.24 521.763ZM303.528 527.761C300.456 529.297 298.237 530.454 296.88 531.23L297.376 532.098C298.707 531.338 300.904 530.191 303.976 528.655L303.528 527.761ZM296.942 531.2L292.622 532.928L292.994 533.856L297.314 532.128L296.942 531.2ZM292.632 532.924C278.866 538.086 264.43 540.668 249.32 540.668V541.668C264.546 541.668 279.102 539.066 292.984 533.86L292.632 532.924ZM249.32 540.668C234.214 540.668 220.655 537.896 208.633 532.362L208.215 533.27C220.385 538.872 234.09 541.668 249.32 541.668V540.668ZM208.636 532.363C196.798 526.826 186.583 518.999 177.989 508.876L177.227 509.524C185.913 519.753 196.242 527.67 208.212 533.269L208.636 532.363ZM177.989 508.876C169.395 498.754 162.414 486.233 157.055 471.303L156.113 471.641C161.506 486.663 168.541 499.294 177.227 509.524L177.989 508.876ZM157.055 471.303C151.695 456.374 149.02 441.935 149.02 427.984H148.02C148.02 442.065 150.721 456.618 156.113 471.641L157.055 471.303ZM149.02 427.984C149.02 392.824 163.914 363.878 193.751 341.118L193.145 340.322C163.078 363.258 148.02 392.488 148.02 427.984H149.02ZM193.747 341.121C210.181 328.891 227.742 322.788 246.44 322.788V321.788C227.506 321.788 209.739 327.973 193.149 340.319L193.747 341.121ZM246.44 322.788C265.221 322.788 280.514 325.088 292.34 329.666L292.701 328.734C280.718 324.096 265.291 321.788 246.44 321.788V322.788ZM292.334 329.664C292.823 329.86 293.249 330.01 293.607 330.113C293.957 330.213 294.274 330.276 294.536 330.276V329.276C294.414 329.276 294.203 329.243 293.881 329.151C293.567 329.062 293.177 328.924 292.706 328.736L292.334 329.664ZM294.536 330.276C294.946 330.276 295.326 330.132 295.584 329.788C295.822 329.471 295.9 329.056 295.9 328.624H294.9C294.9 328.96 294.834 329.121 294.784 329.188C294.754 329.228 294.702 329.276 294.536 329.276V330.276ZM295.9 328.624C295.9 328.131 295.72 327.548 295.422 326.902C295.119 326.246 294.672 325.479 294.088 324.603L293.256 325.157C293.824 326.009 294.241 326.73 294.514 327.322C294.792 327.924 294.9 328.349 294.9 328.624H295.9ZM293.672 325.38H308.072V324.38H293.672V325.38ZM307.654 325.154L335.59 367.778L336.426 367.23L308.49 324.606L307.654 325.154ZM335.691 367.118L327.627 373.742L328.261 374.514L336.325 367.89L335.691 367.118ZM328.339 373.821L322.291 366.045L321.501 366.659L327.549 374.435L328.339 373.821ZM322.24 365.989L310.72 355.045L310.032 355.77L321.552 366.714L322.24 365.989ZM310.721 355.047C302.032 346.744 293.117 341.692 283.974 339.941L283.786 340.923C292.691 342.628 301.44 347.56 310.031 355.769L310.721 355.047ZM283.976 339.941C275.118 338.208 266.829 337.34 259.112 337.34V338.34C266.755 338.34 274.978 339.2 283.784 340.923L283.976 339.941ZM259.112 337.34C251.377 337.34 243.929 338.597 236.77 341.112L237.102 342.056C244.151 339.579 251.487 338.34 259.112 338.34V337.34ZM236.782 341.108C229.619 343.431 222.469 347.202 215.329 352.412L215.919 353.22C222.987 348.062 230.045 344.345 237.09 342.06L236.782 341.108ZM215.324 352.416C208.38 357.624 202.016 363.699 196.232 370.64L197 371.28C202.736 364.397 209.044 358.376 215.924 353.216L215.324 352.416ZM196.232 370.64C190.431 377.601 185.796 385.812 182.323 395.268L183.261 395.612C186.7 386.252 191.281 378.143 197 371.28L196.232 370.64ZM182.323 395.268C178.846 404.731 177.108 414.485 177.108 424.528H178.108C178.108 414.603 179.826 404.965 183.261 395.612L182.323 395.268ZM177.108 424.528C177.108 452.079 184.528 475.613 199.386 495.103L200.182 494.497C185.472 475.203 178.108 451.889 178.108 424.528H177.108ZM199.39 495.108C214.444 514.408 232.629 524.1 253.928 524.1V523.1C232.987 523.1 215.076 513.592 200.178 494.492L199.39 495.108Z" fill="black"/>
</g>
<path d="M59.0482 173.632C59.0482 177.28 59.6242 180.832 60.7762 184.288C59.6242 186.592 57.0322 187.744 53.0002 187.744C48.9682 187.744 45.5122 186.304 42.6322 183.424C39.7522 180.544 38.3122 176.704 38.3122 171.904C38.3122 160.96 43.0162 150.88 52.4242 141.664C61.6402 132.256 72.9682 125.152 86.4082 120.352C100.04 115.36 113.768 112.864 127.592 112.864C192.104 112.864 224.36 136 224.36 182.272C224.36 194.368 220.712 205.216 213.416 214.816C206.12 224.224 197.576 231.136 187.784 235.552C178.184 239.968 168.776 242.176 159.56 242.176C170.312 242.176 179.816 244.576 188.072 249.376C196.52 254.176 203.336 260.416 208.52 268.096C213.896 275.776 218.792 284.32 223.208 293.728C227.816 302.944 232.328 312.256 236.744 321.664C241.16 331.072 245.96 339.616 251.144 347.296C256.328 354.976 262.952 361.216 271.016 366.016C279.272 370.816 288.68 373.216 299.24 373.216C304.04 373.216 307.976 372.256 311.048 370.336C313.928 370.528 315.368 372.16 315.368 375.232C315.368 381.76 308.648 385.024 295.208 385.024C281.768 385.024 269.768 382.528 259.208 377.536C248.648 372.544 240.104 366.016 233.576 357.952C227.048 349.888 221.096 340.96 215.72 331.168C210.536 321.568 205.64 311.968 201.032 302.368C196.424 292.768 191.528 283.936 186.344 275.872C181.352 267.808 174.92 261.28 167.048 256.288C159.176 251.296 150.152 248.8 139.976 248.8C134.984 248.8 132.488 246.112 132.488 240.736C132.488 238.432 133.256 236.704 134.792 235.552C136.328 234.4 138.056 233.824 139.976 233.824C157.832 233.824 171.944 228.64 182.312 218.272C192.68 207.712 197.864 195.712 197.864 182.272C197.864 163.456 191.528 149.536 178.856 140.512C166.184 131.488 150.344 126.976 131.336 126.976C112.52 126.976 95.7202 131.488 80.9362 140.512C66.3442 149.344 59.0482 160.384 59.0482 173.632ZM92.4562 165.28C92.4562 159.52 93.8962 155.2 96.7762 152.32C99.6562 149.248 103.112 147.712 107.144 147.712C111.176 147.712 115.112 149.056 118.952 151.744V278.752C118.952 298.912 115.112 314.944 107.432 326.848C99.9442 338.752 88.5202 344.704 73.1602 344.704C57.9922 344.704 46.5682 341.152 38.8882 334.048C31.2082 327.136 27.3682 317.92 27.3682 306.4C27.3682 291.616 32.1682 284.224 41.7682 284.224C44.0722 284.224 46.0882 284.8 47.8162 285.952C49.5442 287.104 50.9842 288.736 52.1362 290.848C50.6002 294.88 49.8322 300.832 49.8322 308.704C49.8322 316.576 51.8482 322.624 55.8802 326.848C60.1042 330.88 65.3842 332.896 71.7202 332.896C85.5442 332.896 92.4562 320.608 92.4562 296.032V165.28Z" fill="#EA371E"/>
<path d="M60.7762 184.288L61.2234 184.512L61.316 184.326L61.2505 184.13L60.7762 184.288ZM42.6322 183.424L42.9858 183.07L42.6322 183.424ZM52.4242 141.664L52.7742 142.021L52.7814 142.014L52.4242 141.664ZM86.4082 120.352L86.5764 120.823L86.5801 120.822L86.4082 120.352ZM213.416 214.816L213.811 215.122L213.814 215.119L213.416 214.816ZM187.784 235.552L187.578 235.096L187.575 235.098L187.784 235.552ZM188.072 249.376L187.821 249.808L187.825 249.811L188.072 249.376ZM208.52 268.096L208.106 268.376L208.11 268.383L208.52 268.096ZM223.208 293.728L222.755 293.941L222.761 293.952L223.208 293.728ZM236.744 321.664L237.197 321.452L236.744 321.664ZM251.144 347.296L251.558 347.016L251.144 347.296ZM271.016 366.016L270.76 366.446L270.765 366.448L271.016 366.016ZM311.048 370.336L311.081 369.837L310.92 369.826L310.783 369.912L311.048 370.336ZM259.208 377.536L259.422 377.084L259.208 377.536ZM233.576 357.952L233.965 357.637L233.576 357.952ZM215.72 331.168L215.28 331.406L215.282 331.409L215.72 331.168ZM201.032 302.368L200.581 302.584L201.032 302.368ZM186.344 275.872L185.919 276.135L185.923 276.142L186.344 275.872ZM167.048 256.288L167.316 255.866L167.048 256.288ZM134.792 235.552L135.092 235.952L134.792 235.552ZM182.312 218.272L182.666 218.626L182.669 218.622L182.312 218.272ZM178.856 140.512L178.566 140.919L178.856 140.512ZM80.9362 140.512L81.1951 140.94L81.1967 140.939L80.9362 140.512ZM96.7762 152.32L97.1298 152.674L97.1355 152.668L97.141 152.662L96.7762 152.32ZM118.952 151.744H119.452V151.484L119.239 151.334L118.952 151.744ZM107.432 326.848L107.012 326.577L107.009 326.582L107.432 326.848ZM38.8882 334.048L39.2278 333.681L39.2227 333.676L38.8882 334.048ZM47.8162 285.952L48.0936 285.536H48.0935L47.8162 285.952ZM52.1362 290.848L52.6034 291.026L52.6854 290.811L52.5751 290.609L52.1362 290.848ZM55.8802 326.848L55.5185 327.193L55.5266 327.202L55.535 327.21L55.8802 326.848ZM58.5482 173.632C58.5482 177.334 59.1328 180.939 60.3019 184.446L61.2505 184.13C60.1156 180.725 59.5482 177.226 59.5482 173.632H58.5482ZM60.329 184.064C59.3038 186.115 56.9602 187.244 53.0002 187.244V188.244C57.1042 188.244 59.9446 187.069 61.2234 184.512L60.329 184.064ZM53.0002 187.244C49.1023 187.244 45.7731 185.858 42.9858 183.07L42.2786 183.778C45.2513 186.75 48.8341 188.244 53.0002 188.244V187.244ZM42.9858 183.07C40.2161 180.301 38.8122 176.597 38.8122 171.904H37.8122C37.8122 176.811 39.2883 180.787 42.2786 183.778L42.9858 183.07ZM38.8122 171.904C38.8122 161.121 43.4411 151.164 52.7741 142.021L52.0743 141.307C42.5913 150.596 37.8122 160.799 37.8122 171.904H38.8122ZM52.7814 142.014C61.94 132.664 73.2017 125.6 86.5764 120.823L86.24 119.881C72.7348 124.704 61.3404 131.848 52.067 141.314L52.7814 142.014ZM86.5801 120.822C100.16 115.849 113.83 113.364 127.592 113.364V112.364C113.706 112.364 99.9206 114.871 86.2363 119.882L86.5801 120.822ZM127.592 113.364C159.803 113.364 183.872 119.143 199.877 130.622C215.851 142.08 223.86 159.267 223.86 182.272H224.86C224.86 159.005 216.741 141.488 200.459 129.81C184.208 118.153 159.893 112.364 127.592 112.364V113.364ZM223.86 182.272C223.86 194.259 220.248 205.001 213.018 214.513L213.814 215.119C221.176 205.431 224.86 194.477 224.86 182.272H223.86ZM213.021 214.51C205.769 223.86 197.288 230.717 187.578 235.096L187.99 236.008C197.864 231.555 206.471 224.588 213.811 215.122L213.021 214.51ZM187.575 235.098C178.031 239.488 168.694 241.676 159.56 241.676V242.676C168.858 242.676 178.337 240.448 187.993 236.006L187.575 235.098ZM159.56 242.676C170.235 242.676 179.65 245.058 187.821 249.808L188.323 248.944C179.982 244.094 170.389 241.676 159.56 241.676V242.676ZM187.825 249.811C196.209 254.575 202.967 260.763 208.106 268.376L208.934 267.816C203.705 260.069 196.831 253.777 188.319 248.941L187.825 249.811ZM208.11 268.383C213.468 276.037 218.35 284.556 222.755 293.94L223.661 293.516C219.234 284.084 214.324 275.515 208.93 267.809L208.11 268.383ZM222.761 293.952C227.367 303.164 231.877 312.472 236.291 321.876L237.197 321.452C232.779 312.04 228.265 302.724 223.655 293.504L222.761 293.952ZM236.291 321.876C240.717 331.305 245.53 339.872 250.73 347.576L251.558 347.016C246.39 339.36 241.603 330.839 237.197 321.452L236.291 321.876ZM250.73 347.576C255.955 355.318 262.634 361.608 270.76 366.446L271.272 365.586C263.27 360.824 256.701 354.634 251.558 347.016L250.73 347.576ZM270.765 366.448C279.105 371.297 288.601 373.716 299.24 373.716V372.716C288.759 372.716 279.439 370.335 271.267 365.584L270.765 366.448ZM299.24 373.716C304.104 373.716 308.14 372.743 311.313 370.76L310.783 369.912C307.812 371.769 303.976 372.716 299.24 372.716V373.716ZM311.015 370.835C312.368 370.925 313.306 371.347 313.913 372.035C314.525 372.728 314.868 373.768 314.868 375.232H315.868C315.868 373.624 315.491 372.312 314.663 371.373C313.83 370.429 312.608 369.939 311.081 369.837L311.015 370.835ZM314.868 375.232C314.868 376.773 314.473 378.101 313.696 379.233C312.916 380.369 311.731 381.338 310.11 382.126C306.852 383.708 301.904 384.524 295.208 384.524V385.524C301.952 385.524 307.084 384.708 310.546 383.026C312.285 382.182 313.62 381.111 314.52 379.799C315.423 378.483 315.868 376.955 315.868 375.232H314.868ZM295.208 384.524C281.831 384.524 269.906 382.04 259.422 377.084L258.994 377.988C269.63 383.016 281.705 385.524 295.208 385.524V384.524ZM259.422 377.084C248.921 372.12 240.44 365.636 233.965 357.637L233.187 358.267C239.768 366.396 248.375 372.968 258.994 377.988L259.422 377.084ZM233.965 357.637C227.457 349.598 221.521 340.695 216.158 330.927L215.282 331.409C220.671 341.225 226.639 350.178 233.187 358.267L233.965 357.637ZM216.16 330.93C210.98 321.337 206.087 311.744 201.483 302.152L200.581 302.584C205.193 312.192 210.092 321.799 215.28 331.406L216.16 330.93ZM201.483 302.152C196.867 292.535 191.961 283.685 186.765 275.602L185.923 276.142C191.095 284.187 195.981 293.001 200.581 302.584L201.483 302.152ZM186.769 275.609C181.738 267.482 175.253 260.899 167.316 255.866L166.78 256.71C174.587 261.661 180.966 268.134 185.919 276.135L186.769 275.609ZM167.316 255.866C159.356 250.818 150.238 248.3 139.976 248.3V249.3C150.066 249.3 158.996 251.774 166.78 256.71L167.316 255.866ZM139.976 248.3C137.567 248.3 135.849 247.653 134.726 246.444C133.597 245.227 132.988 243.356 132.988 240.736H131.988C131.988 243.492 132.627 245.653 133.994 247.124C135.367 248.603 137.393 249.3 139.976 249.3V248.3ZM132.988 240.736C132.988 238.554 133.708 236.99 135.092 235.952L134.492 235.152C132.804 236.418 131.988 238.31 131.988 240.736H132.988ZM135.092 235.952C136.541 234.865 138.164 234.324 139.976 234.324V233.324C137.948 233.324 136.115 233.935 134.492 235.152L135.092 235.952ZM139.976 234.324C157.934 234.324 172.184 229.107 182.666 218.626L181.958 217.918C171.704 228.173 157.73 233.324 139.976 233.324V234.324ZM182.669 218.622C193.118 207.979 198.364 195.857 198.364 182.272H197.364C197.364 195.567 192.242 207.445 181.955 217.922L182.669 218.622ZM198.364 182.272C198.364 163.333 191.978 149.243 179.146 140.105L178.566 140.919C191.078 149.829 197.364 163.579 197.364 182.272H198.364ZM179.146 140.105C166.372 131.008 150.425 126.476 131.336 126.476V127.476C150.263 127.476 165.996 131.968 178.566 140.919L179.146 140.105ZM131.336 126.476C112.436 126.476 95.5449 131.009 80.6757 140.085L81.1967 140.939C95.8955 131.967 112.604 127.476 131.336 127.476V126.476ZM80.6773 140.084C65.9848 148.977 58.5482 160.158 58.5482 173.632H59.5482C59.5482 160.61 66.7036 149.711 81.1951 140.94L80.6773 140.084ZM92.9562 165.28C92.9562 159.597 94.3766 155.427 97.1298 152.674L96.4226 151.966C93.4158 154.973 91.9562 159.443 91.9562 165.28H92.9562ZM97.141 152.662C99.9312 149.686 103.257 148.212 107.144 148.212V147.212C102.967 147.212 99.3812 148.81 96.4114 151.978L97.141 152.662ZM107.144 148.212C111.057 148.212 114.895 149.515 118.665 152.154L119.239 151.334C115.329 148.597 111.295 147.212 107.144 147.212V148.212ZM118.452 151.744V278.752H119.452V151.744H118.452ZM118.452 278.752C118.452 298.855 114.622 314.781 107.012 326.577L107.852 327.119C115.602 315.107 119.452 298.969 119.452 278.752H118.452ZM107.009 326.582C99.6221 338.325 88.3673 344.204 73.1602 344.204V345.204C88.6731 345.204 100.266 339.179 107.855 327.114L107.009 326.582ZM73.1602 344.204C58.062 344.204 46.7811 340.668 39.2277 333.681L38.5487 334.415C46.3553 341.636 57.9224 345.204 73.1602 345.204V344.204ZM39.2227 333.676C31.6608 326.871 27.8682 317.796 27.8682 306.4H26.8682C26.8682 318.044 30.7556 327.401 38.5537 334.42L39.2227 333.676ZM27.8682 306.4C27.8682 299.046 29.0649 293.617 31.3875 290.04C33.686 286.501 37.1196 284.724 41.7682 284.724V283.724C36.8168 283.724 33.0504 285.643 30.5489 289.496C28.0715 293.311 26.8682 298.97 26.8682 306.4H27.8682ZM41.7682 284.724C43.9847 284.724 45.9018 285.277 47.5388 286.368L48.0935 285.536C46.2746 284.323 44.1597 283.724 41.7682 283.724V284.724ZM47.5388 286.368C49.1895 287.468 50.5779 289.035 51.6973 291.087L52.5751 290.609C51.3905 288.437 49.8989 286.74 48.0936 285.536L47.5388 286.368ZM51.669 290.67C50.1002 294.788 49.3322 300.813 49.3322 308.704H50.3322C50.3322 300.851 51.1002 294.972 52.6034 291.026L51.669 290.67ZM49.3322 308.704C49.3322 316.659 51.3705 322.848 55.5185 327.193L56.2419 326.503C52.3259 322.4 50.3322 316.493 50.3322 308.704H49.3322ZM55.535 327.21C59.8603 331.338 65.2676 333.396 71.7202 333.396V332.396C65.5008 332.396 60.3481 330.422 56.2254 326.486L55.535 327.21ZM71.7202 333.396C78.8173 333.396 84.1656 330.223 87.708 323.925C91.2268 317.67 92.9562 308.35 92.9562 296.032H91.9562C91.9562 308.29 90.2296 317.402 86.8364 323.435C83.4668 329.425 78.4471 332.396 71.7202 332.396V333.396ZM92.9562 296.032V165.28H91.9562V296.032H92.9562Z" fill="black"/>
<path d="M253.928 523.6C286.568 523.6 310.184 514.672 324.776 496.816L330.536 489.04L338.888 495.952C331.4 505.744 326.12 511.984 323.048 514.672C320.168 517.168 317 519.664 313.544 522.16C310.28 524.656 307.016 526.672 303.752 528.208C300.68 529.744 298.472 530.896 297.128 531.664L292.808 533.392C278.984 538.576 264.488 541.168 249.32 541.168C234.152 541.168 220.52 538.384 208.424 532.816C196.52 527.248 186.248 519.376 177.608 509.2C168.968 499.024 161.96 486.448 156.584 471.472C151.208 456.496 148.52 442 148.52 427.984C148.52 392.656 163.496 363.568 193.448 340.72C209.96 328.432 227.624 322.288 246.44 322.288C265.256 322.288 280.616 324.592 292.52 329.2C293.48 329.584 294.152 329.776 294.536 329.776C295.112 329.776 295.4 329.392 295.4 328.624C295.4 327.856 294.824 326.608 293.672 324.88H308.072L336.008 367.504L327.944 374.128L321.896 366.352L310.376 355.408C301.736 347.152 292.904 342.16 283.88 340.432C275.048 338.704 266.792 337.84 259.112 337.84C251.432 337.84 244.04 339.088 236.936 341.584C229.832 343.888 222.728 347.632 215.624 352.816C208.712 358 202.376 364.048 196.616 370.96C190.856 377.872 186.248 386.032 182.792 395.44C179.336 404.848 177.608 414.544 177.608 424.528C177.608 451.984 185 475.408 199.784 494.8C214.76 514 232.808 523.6 253.928 523.6Z" fill="#4A0851"/>
<path d="M324.776 496.816L325.163 497.132L325.171 497.123L325.178 497.114L324.776 496.816ZM330.536 489.04L330.855 488.655L330.448 488.318L330.134 488.742L330.536 489.04ZM338.888 495.952L339.285 496.256L339.577 495.874L339.207 495.567L338.888 495.952ZM323.048 514.672L323.375 515.05L323.377 515.048L323.048 514.672ZM313.544 522.16L313.251 521.755L313.24 521.763L313.544 522.16ZM303.752 528.208L303.539 527.755L303.528 527.761L303.752 528.208ZM297.128 531.664L297.314 532.128L297.346 532.115L297.376 532.098L297.128 531.664ZM292.808 533.392L292.984 533.86L292.994 533.856L292.808 533.392ZM208.424 532.816L208.212 533.269L208.215 533.27L208.424 532.816ZM177.608 509.2L177.227 509.524L177.608 509.2ZM156.584 471.472L156.113 471.641L156.584 471.472ZM193.448 340.72L193.149 340.319L193.145 340.322L193.448 340.72ZM292.52 329.2L292.706 328.736L292.701 328.734L292.52 329.2ZM293.672 324.88V324.38H292.738L293.256 325.157L293.672 324.88ZM308.072 324.88L308.49 324.606L308.342 324.38H308.072V324.88ZM336.008 367.504L336.325 367.89L336.672 367.605L336.426 367.23L336.008 367.504ZM327.944 374.128L327.549 374.435L327.865 374.84L328.261 374.514L327.944 374.128ZM321.896 366.352L322.291 366.045L322.268 366.015L322.24 365.989L321.896 366.352ZM310.376 355.408L310.031 355.769L310.032 355.77L310.376 355.408ZM283.88 340.432L283.784 340.923H283.786L283.88 340.432ZM236.936 341.584L237.09 342.06L237.102 342.056L236.936 341.584ZM215.624 352.816L215.329 352.412L215.324 352.416L215.624 352.816ZM196.616 370.96L197 371.28L196.616 370.96ZM182.792 395.44L183.261 395.612L182.792 395.44ZM199.784 494.8L199.386 495.103L199.39 495.108L199.784 494.8ZM253.928 524.1C286.653 524.1 310.442 515.147 325.163 497.132L324.389 496.5C309.927 514.197 286.483 523.1 253.928 523.1V524.1ZM325.178 497.114L330.938 489.338L330.134 488.742L324.374 496.518L325.178 497.114ZM330.217 489.425L338.569 496.337L339.207 495.567L330.855 488.655L330.217 489.425ZM338.491 495.648C330.997 505.447 325.747 511.646 322.719 514.296L323.377 515.048C326.493 512.322 331.803 506.041 339.285 496.256L338.491 495.648ZM322.721 514.294C319.853 516.779 316.697 519.266 313.251 521.755L313.837 522.565C317.303 520.062 320.483 517.557 323.375 515.05L322.721 514.294ZM313.24 521.763C310.001 524.24 306.767 526.237 303.539 527.756L303.965 528.66C307.265 527.107 310.559 525.072 313.848 522.557L313.24 521.763ZM303.528 527.761C300.456 529.297 298.237 530.454 296.88 531.23L297.376 532.098C298.707 531.338 300.904 530.191 303.976 528.655L303.528 527.761ZM296.942 531.2L292.622 532.928L292.994 533.856L297.314 532.128L296.942 531.2ZM292.632 532.924C278.866 538.086 264.43 540.668 249.32 540.668V541.668C264.546 541.668 279.102 539.066 292.984 533.86L292.632 532.924ZM249.32 540.668C234.214 540.668 220.655 537.896 208.633 532.362L208.215 533.27C220.385 538.872 234.09 541.668 249.32 541.668V540.668ZM208.636 532.363C196.798 526.826 186.583 518.999 177.989 508.876L177.227 509.524C185.913 519.753 196.242 527.67 208.212 533.269L208.636 532.363ZM177.989 508.876C169.395 498.754 162.414 486.233 157.055 471.303L156.113 471.641C161.506 486.663 168.541 499.294 177.227 509.524L177.989 508.876ZM157.055 471.303C151.695 456.374 149.02 441.935 149.02 427.984H148.02C148.02 442.065 150.721 456.618 156.113 471.641L157.055 471.303ZM149.02 427.984C149.02 392.824 163.914 363.878 193.751 341.118L193.145 340.322C163.078 363.258 148.02 392.488 148.02 427.984H149.02ZM193.747 341.121C210.181 328.891 227.742 322.788 246.44 322.788V321.788C227.506 321.788 209.739 327.973 193.149 340.319L193.747 341.121ZM246.44 322.788C265.221 322.788 280.514 325.088 292.34 329.666L292.701 328.734C280.718 324.096 265.291 321.788 246.44 321.788V322.788ZM292.334 329.664C292.823 329.86 293.249 330.01 293.607 330.113C293.957 330.213 294.274 330.276 294.536 330.276V329.276C294.414 329.276 294.203 329.243 293.881 329.151C293.567 329.062 293.177 328.924 292.706 328.736L292.334 329.664ZM294.536 330.276C294.946 330.276 295.326 330.132 295.584 329.788C295.822 329.471 295.9 329.056 295.9 328.624H294.9C294.9 328.96 294.834 329.121 294.784 329.188C294.754 329.228 294.702 329.276 294.536 329.276V330.276ZM295.9 328.624C295.9 328.131 295.72 327.548 295.422 326.902C295.119 326.246 294.672 325.479 294.088 324.603L293.256 325.157C293.824 326.009 294.241 326.73 294.514 327.322C294.792 327.924 294.9 328.349 294.9 328.624H295.9ZM293.672 325.38H308.072V324.38H293.672V325.38ZM307.654 325.154L335.59 367.778L336.426 367.23L308.49 324.606L307.654 325.154ZM335.691 367.118L327.627 373.742L328.261 374.514L336.325 367.89L335.691 367.118ZM328.339 373.821L322.291 366.045L321.501 366.659L327.549 374.435L328.339 373.821ZM322.24 365.989L310.72 355.045L310.032 355.77L321.552 366.714L322.24 365.989ZM310.721 355.047C302.032 346.744 293.117 341.692 283.974 339.941L283.786 340.923C292.691 342.628 301.44 347.56 310.031 355.769L310.721 355.047ZM283.976 339.941C275.118 338.208 266.829 337.34 259.112 337.34V338.34C266.755 338.34 274.978 339.2 283.784 340.923L283.976 339.941ZM259.112 337.34C251.377 337.34 243.929 338.597 236.77 341.112L237.102 342.056C244.151 339.579 251.487 338.34 259.112 338.34V337.34ZM236.782 341.108C229.619 343.431 222.469 347.202 215.329 352.412L215.919 353.22C222.987 348.062 230.045 344.345 237.09 342.06L236.782 341.108ZM215.324 352.416C208.38 357.624 202.016 363.699 196.232 370.64L197 371.28C202.736 364.397 209.044 358.376 215.924 353.216L215.324 352.416ZM196.232 370.64C190.431 377.601 185.796 385.812 182.323 395.268L183.261 395.612C186.7 386.252 191.281 378.143 197 371.28L196.232 370.64ZM182.323 395.268C178.846 404.731 177.108 414.485 177.108 424.528H178.108C178.108 414.603 179.826 404.965 183.261 395.612L182.323 395.268ZM177.108 424.528C177.108 452.079 184.528 475.613 199.386 495.103L200.182 494.497C185.472 475.203 178.108 451.889 178.108 424.528H177.108ZM199.39 495.108C214.444 514.408 232.629 524.1 253.928 524.1V523.1C232.987 523.1 215.076 513.592 200.178 494.492L199.39 495.108Z" fill="black"/>
<path d="M59.0482 173.632C59.0482 177.28 59.6242 180.832 60.7762 184.288C59.6242 186.592 57.0322 187.744 53.0002 187.744C48.9682 187.744 45.5122 186.304 42.6322 183.424C39.7522 180.544 38.3122 176.704 38.3122 171.904C38.3122 160.96 43.0162 150.88 52.4242 141.664C61.6402 132.256 72.9682 125.152 86.4082 120.352C100.04 115.36 113.768 112.864 127.592 112.864C192.104 112.864 224.36 136 224.36 182.272C224.36 194.368 220.712 205.216 213.416 214.816C206.12 224.224 197.576 231.136 187.784 235.552C178.184 239.968 168.776 242.176 159.56 242.176C170.312 242.176 179.816 244.576 188.072 249.376C196.52 254.176 203.336 260.416 208.52 268.096C213.896 275.776 218.792 284.32 223.208 293.728C227.816 302.944 232.328 312.256 236.744 321.664C241.16 331.072 245.96 339.616 251.144 347.296C256.328 354.976 262.952 361.216 271.016 366.016C279.272 370.816 288.68 373.216 299.24 373.216C304.04 373.216 307.976 372.256 311.048 370.336C313.928 370.528 315.368 372.16 315.368 375.232C315.368 381.76 308.648 385.024 295.208 385.024C281.768 385.024 269.768 382.528 259.208 377.536C248.648 372.544 240.104 366.016 233.576 357.952C227.048 349.888 221.096 340.96 215.72 331.168C210.536 321.568 205.64 311.968 201.032 302.368C196.424 292.768 191.528 283.936 186.344 275.872C181.352 267.808 174.92 261.28 167.048 256.288C159.176 251.296 150.152 248.8 139.976 248.8C134.984 248.8 132.488 246.112 132.488 240.736C132.488 238.432 133.256 236.704 134.792 235.552C136.328 234.4 138.056 233.824 139.976 233.824C157.832 233.824 171.944 228.64 182.312 218.272C192.68 207.712 197.864 195.712 197.864 182.272C197.864 163.456 191.528 149.536 178.856 140.512C166.184 131.488 150.344 126.976 131.336 126.976C112.52 126.976 95.7202 131.488 80.9362 140.512C66.3442 149.344 59.0482 160.384 59.0482 173.632ZM92.4562 165.28C92.4562 159.52 93.8962 155.2 96.7762 152.32C99.6562 149.248 103.112 147.712 107.144 147.712C111.176 147.712 115.112 149.056 118.952 151.744V278.752C118.952 298.912 115.112 314.944 107.432 326.848C99.9442 338.752 88.5202 344.704 73.1602 344.704C57.9922 344.704 46.5682 341.152 38.8882 334.048C31.2082 327.136 27.3682 317.92 27.3682 306.4C27.3682 291.616 32.1682 284.224 41.7682 284.224C44.0722 284.224 46.0882 284.8 47.8162 285.952C49.5442 287.104 50.9842 288.736 52.1362 290.848C50.6002 294.88 49.8322 300.832 49.8322 308.704C49.8322 316.576 51.8482 322.624 55.8802 326.848C60.1042 330.88 65.3842 332.896 71.7202 332.896C85.5442 332.896 92.4562 320.608 92.4562 296.032V165.28Z" fill="#4A0851"/>
<path d="M60.7762 184.288L61.2234 184.512L61.316 184.326L61.2505 184.13L60.7762 184.288ZM42.6322 183.424L42.9858 183.07L42.6322 183.424ZM52.4242 141.664L52.7742 142.021L52.7814 142.014L52.4242 141.664ZM86.4082 120.352L86.5764 120.823L86.5801 120.822L86.4082 120.352ZM213.416 214.816L213.811 215.122L213.814 215.119L213.416 214.816ZM187.784 235.552L187.578 235.096L187.575 235.098L187.784 235.552ZM188.072 249.376L187.821 249.808L187.825 249.811L188.072 249.376ZM208.52 268.096L208.106 268.376L208.11 268.383L208.52 268.096ZM223.208 293.728L222.755 293.941L222.761 293.952L223.208 293.728ZM236.744 321.664L237.197 321.452L236.744 321.664ZM251.144 347.296L251.558 347.016L251.144 347.296ZM271.016 366.016L270.76 366.446L270.765 366.448L271.016 366.016ZM311.048 370.336L311.081 369.837L310.92 369.826L310.783 369.912L311.048 370.336ZM259.208 377.536L259.422 377.084L259.208 377.536ZM233.576 357.952L233.965 357.637L233.576 357.952ZM215.72 331.168L215.28 331.406L215.282 331.409L215.72 331.168ZM201.032 302.368L200.581 302.584L201.032 302.368ZM186.344 275.872L185.919 276.135L185.923 276.142L186.344 275.872ZM167.048 256.288L167.316 255.866L167.048 256.288ZM134.792 235.552L135.092 235.952L134.792 235.552ZM182.312 218.272L182.666 218.626L182.669 218.622L182.312 218.272ZM178.856 140.512L178.566 140.919L178.856 140.512ZM80.9362 140.512L81.1951 140.94L81.1967 140.939L80.9362 140.512ZM96.7762 152.32L97.1298 152.674L97.1355 152.668L97.141 152.662L96.7762 152.32ZM118.952 151.744H119.452V151.484L119.239 151.334L118.952 151.744ZM107.432 326.848L107.012 326.577L107.009 326.582L107.432 326.848ZM38.8882 334.048L39.2278 333.681L39.2227 333.676L38.8882 334.048ZM47.8162 285.952L48.0936 285.536H48.0935L47.8162 285.952ZM52.1362 290.848L52.6034 291.026L52.6854 290.811L52.5751 290.609L52.1362 290.848ZM55.8802 326.848L55.5185 327.193L55.5266 327.202L55.535 327.21L55.8802 326.848ZM58.5482 173.632C58.5482 177.334 59.1328 180.939 60.3019 184.446L61.2505 184.13C60.1156 180.725 59.5482 177.226 59.5482 173.632H58.5482ZM60.329 184.064C59.3038 186.115 56.9602 187.244 53.0002 187.244V188.244C57.1042 188.244 59.9446 187.069 61.2234 184.512L60.329 184.064ZM53.0002 187.244C49.1023 187.244 45.7731 185.858 42.9858 183.07L42.2786 183.778C45.2513 186.75 48.8341 188.244 53.0002 188.244V187.244ZM42.9858 183.07C40.2161 180.301 38.8122 176.597 38.8122 171.904H37.8122C37.8122 176.811 39.2883 180.787 42.2786 183.778L42.9858 183.07ZM38.8122 171.904C38.8122 161.121 43.4411 151.164 52.7741 142.021L52.0743 141.307C42.5913 150.596 37.8122 160.799 37.8122 171.904H38.8122ZM52.7814 142.014C61.94 132.664 73.2017 125.6 86.5764 120.823L86.24 119.881C72.7348 124.704 61.3404 131.848 52.067 141.314L52.7814 142.014ZM86.5801 120.822C100.16 115.849 113.83 113.364 127.592 113.364V112.364C113.706 112.364 99.9206 114.871 86.2363 119.882L86.5801 120.822ZM127.592 113.364C159.803 113.364 183.872 119.143 199.877 130.622C215.851 142.08 223.86 159.267 223.86 182.272H224.86C224.86 159.005 216.741 141.488 200.459 129.81C184.208 118.153 159.893 112.364 127.592 112.364V113.364ZM223.86 182.272C223.86 194.259 220.248 205.001 213.018 214.513L213.814 215.119C221.176 205.431 224.86 194.477 224.86 182.272H223.86ZM213.021 214.51C205.769 223.86 197.288 230.717 187.578 235.096L187.99 236.008C197.864 231.555 206.471 224.588 213.811 215.122L213.021 214.51ZM187.575 235.098C178.031 239.488 168.694 241.676 159.56 241.676V242.676C168.858 242.676 178.337 240.448 187.993 236.006L187.575 235.098ZM159.56 242.676C170.235 242.676 179.65 245.058 187.821 249.808L188.323 248.944C179.982 244.094 170.389 241.676 159.56 241.676V242.676ZM187.825 249.811C196.209 254.575 202.967 260.763 208.106 268.376L208.934 267.816C203.705 260.069 196.831 253.777 188.319 248.941L187.825 249.811ZM208.11 268.383C213.468 276.037 218.35 284.556 222.755 293.94L223.661 293.516C219.234 284.084 214.324 275.515 208.93 267.809L208.11 268.383ZM222.761 293.952C227.367 303.164 231.877 312.472 236.291 321.876L237.197 321.452C232.779 312.04 228.265 302.724 223.655 293.504L222.761 293.952ZM236.291 321.876C240.717 331.305 245.53 339.872 250.73 347.576L251.558 347.016C246.39 339.36 241.603 330.839 237.197 321.452L236.291 321.876ZM250.73 347.576C255.955 355.318 262.634 361.608 270.76 366.446L271.272 365.586C263.27 360.824 256.701 354.634 251.558 347.016L250.73 347.576ZM270.765 366.448C279.105 371.297 288.601 373.716 299.24 373.716V372.716C288.759 372.716 279.439 370.335 271.267 365.584L270.765 366.448ZM299.24 373.716C304.104 373.716 308.14 372.743 311.313 370.76L310.783 369.912C307.812 371.769 303.976 372.716 299.24 372.716V373.716ZM311.015 370.835C312.368 370.925 313.306 371.347 313.913 372.035C314.525 372.728 314.868 373.768 314.868 375.232H315.868C315.868 373.624 315.491 372.312 314.663 371.373C313.83 370.429 312.608 369.939 311.081 369.837L311.015 370.835ZM314.868 375.232C314.868 376.773 314.473 378.101 313.696 379.233C312.916 380.369 311.731 381.338 310.11 382.126C306.852 383.708 301.904 384.524 295.208 384.524V385.524C301.952 385.524 307.084 384.708 310.546 383.026C312.285 382.182 313.62 381.111 314.52 379.799C315.423 378.483 315.868 376.955 315.868 375.232H314.868ZM295.208 384.524C281.831 384.524 269.906 382.04 259.422 377.084L258.994 377.988C269.63 383.016 281.705 385.524 295.208 385.524V384.524ZM259.422 377.084C248.921 372.12 240.44 365.636 233.965 357.637L233.187 358.267C239.768 366.396 248.375 372.968 258.994 377.988L259.422 377.084ZM233.965 357.637C227.457 349.598 221.521 340.695 216.158 330.927L215.282 331.409C220.671 341.225 226.639 350.178 233.187 358.267L233.965 357.637ZM216.16 330.93C210.98 321.337 206.087 311.744 201.483 302.152L200.581 302.584C205.193 312.192 210.092 321.799 215.28 331.406L216.16 330.93ZM201.483 302.152C196.867 292.535 191.961 283.685 186.765 275.602L185.923 276.142C191.095 284.187 195.981 293.001 200.581 302.584L201.483 302.152ZM186.769 275.609C181.738 267.482 175.253 260.899 167.316 255.866L166.78 256.71C174.587 261.661 180.966 268.134 185.919 276.135L186.769 275.609ZM167.316 255.866C159.356 250.818 150.238 248.3 139.976 248.3V249.3C150.066 249.3 158.996 251.774 166.78 256.71L167.316 255.866ZM139.976 248.3C137.567 248.3 135.849 247.653 134.726 246.444C133.597 245.227 132.988 243.356 132.988 240.736H131.988C131.988 243.492 132.627 245.653 133.994 247.124C135.367 248.603 137.393 249.3 139.976 249.3V248.3ZM132.988 240.736C132.988 238.554 133.708 236.99 135.092 235.952L134.492 235.152C132.804 236.418 131.988 238.31 131.988 240.736H132.988ZM135.092 235.952C136.541 234.865 138.164 234.324 139.976 234.324V233.324C137.948 233.324 136.115 233.935 134.492 235.152L135.092 235.952ZM139.976 234.324C157.934 234.324 172.184 229.107 182.666 218.626L181.958 217.918C171.704 228.173 157.73 233.324 139.976 233.324V234.324ZM182.669 218.622C193.118 207.979 198.364 195.857 198.364 182.272H197.364C197.364 195.567 192.242 207.445 181.955 217.922L182.669 218.622ZM198.364 182.272C198.364 163.333 191.978 149.243 179.146 140.105L178.566 140.919C191.078 149.829 197.364 163.579 197.364 182.272H198.364ZM179.146 140.105C166.372 131.008 150.425 126.476 131.336 126.476V127.476C150.263 127.476 165.996 131.968 178.566 140.919L179.146 140.105ZM131.336 126.476C112.436 126.476 95.5449 131.009 80.6757 140.085L81.1967 140.939C95.8955 131.967 112.604 127.476 131.336 127.476V126.476ZM80.6773 140.084C65.9848 148.977 58.5482 160.158 58.5482 173.632H59.5482C59.5482 160.61 66.7036 149.711 81.1951 140.94L80.6773 140.084ZM92.9562 165.28C92.9562 159.597 94.3766 155.427 97.1298 152.674L96.4226 151.966C93.4158 154.973 91.9562 159.443 91.9562 165.28H92.9562ZM97.141 152.662C99.9312 149.686 103.257 148.212 107.144 148.212V147.212C102.967 147.212 99.3812 148.81 96.4114 151.978L97.141 152.662ZM107.144 148.212C111.057 148.212 114.895 149.515 118.665 152.154L119.239 151.334C115.329 148.597 111.295 147.212 107.144 147.212V148.212ZM118.452 151.744V278.752H119.452V151.744H118.452ZM118.452 278.752C118.452 298.855 114.622 314.781 107.012 326.577L107.852 327.119C115.602 315.107 119.452 298.969 119.452 278.752H118.452ZM107.009 326.582C99.6221 338.325 88.3673 344.204 73.1602 344.204V345.204C88.6731 345.204 100.266 339.179 107.855 327.114L107.009 326.582ZM73.1602 344.204C58.062 344.204 46.7811 340.668 39.2277 333.681L38.5487 334.415C46.3553 341.636 57.9224 345.204 73.1602 345.204V344.204ZM39.2227 333.676C31.6608 326.871 27.8682 317.796 27.8682 306.4H26.8682C26.8682 318.044 30.7556 327.401 38.5537 334.42L39.2227 333.676ZM27.8682 306.4C27.8682 299.046 29.0649 293.617 31.3875 290.04C33.686 286.501 37.1196 284.724 41.7682 284.724V283.724C36.8168 283.724 33.0504 285.643 30.5489 289.496C28.0715 293.311 26.8682 298.97 26.8682 306.4H27.8682ZM41.7682 284.724C43.9847 284.724 45.9018 285.277 47.5388 286.368L48.0935 285.536C46.2746 284.323 44.1597 283.724 41.7682 283.724V284.724ZM47.5388 286.368C49.1895 287.468 50.5779 289.035 51.6973 291.087L52.5751 290.609C51.3905 288.437 49.8989 286.74 48.0936 285.536L47.5388 286.368ZM51.669 290.67C50.1002 294.788 49.3322 300.813 49.3322 308.704H50.3322C50.3322 300.851 51.1002 294.972 52.6034 291.026L51.669 290.67ZM49.3322 308.704C49.3322 316.659 51.3705 322.848 55.5185 327.193L56.2419 326.503C52.3259 322.4 50.3322 316.493 50.3322 308.704H49.3322ZM55.535 327.21C59.8603 331.338 65.2676 333.396 71.7202 333.396V332.396C65.5008 332.396 60.3481 330.422 56.2254 326.486L55.535 327.21ZM71.7202 333.396C78.8173 333.396 84.1656 330.223 87.708 323.925C91.2268 317.67 92.9562 308.35 92.9562 296.032H91.9562C91.9562 308.29 90.2296 317.402 86.8364 323.435C83.4668 329.425 78.4471 332.396 71.7202 332.396V333.396ZM92.9562 296.032V165.28H91.9562V296.032H92.9562Z" fill="black"/>
<defs>
<filter id="filter0_i" x="148.02" y="321.788" width="191.557" height="223.88" filterUnits="userSpaceOnUse" color-interpolation-filters="sRGB">
<feFlood flood-opacity="0" result="BackgroundImageFix"/>
<feBlend mode="normal" in="SourceGraphic" in2="BackgroundImageFix" result="shape"/>
<feColorMatrix in="SourceAlpha" type="matrix" values="0 0 0 0 0 0 0 0 0 0 0 0 0 0 0 0 0 0 127 0" result="hardAlpha"/>
<feOffset dy="4"/>
<feGaussianBlur stdDeviation="2"/>
<feComposite in2="hardAlpha" operator="arithmetic" k2="-1" k3="1"/>
<feColorMatrix type="matrix" values="0 0 0 0 0 0 0 0 0 0 0 0 0 0 0 0 0 0 0.25 0"/>
<feBlend mode="normal" in2="shape" result="effect1_innerShadow"/>
</filter>
</defs>
</svg>
